<svg width="10" height="14" viewBox="0 0 10 14" fill="none" xmlns="http://www.w3.org/2000/svg">
  <path d="M0 12.6094V1.39062C0 1.02604 0.0989583 0.734375 0.296875 0.515625C0.494792 0.296875 0.752604 0.1875 1.07031 0.1875H2.57031C2.88802 0.1875 3.14583 0.296875 3.34375 0.515625C3.54167 0.734375 3.64062 1.02604 3.64062 1.39062V12.6094C3.64062 12.974 3.54167 13.2656 3.34375 13.4844C3.14583 13.7031 2.88802 13.8125 2.57031 13.8125H1.07031C0.752604 13.8125 0.494792 13.7031 0.296875 13.4844C0.0989583 13.2656 0 12.974 0 12.6094ZM6.35938 12.6094V1.39062C6.35938 1.02604 6.45833 0.734375 6.65625 0.515625C6.85417 0.296875 7.11198 0.1875 7.42969 0.1875H8.92969C9.2474 0.1875 9.50521 0.296875 9.70312 0.515625C9.90104 0.734375 10 1.02604 10 1.39062V12.6094C10 12.974 9.90104 13.2656 9.70312 13.4844C9.50521 13.7031 9.2474 13.8125 8.92969 13.8125H7.42969C7.11198 13.8125 6.85417 13.7031 6.65625 13.4844C6.45833 13.2656 6.35938 12.974 6.35938 12.6094Z" fill="currentColor"/>
</svg>

