<svg xmlns="http://www.w3.org/2000/svg" width="24" height="24" viewBox="0 0 24 24" fill="none">
  <path
    fill-rule="evenodd"
    clip-rule="evenodd"
    d="M5.48038 4.61074L5.56694 4.68306L12 11.1163L18.4331 4.68306C18.6771 4.43898 19.0729 4.43898 19.3169 4.68306C19.5339 4.90002 19.558 5.2368 19.3893 5.48038L19.3169 5.56694L12.8837 12L19.3169 18.4331C19.561 18.6771 19.561 19.0729 19.3169 19.3169C19.1 19.5339 18.7632 19.558 18.5196 19.3893L18.4331 19.3169L12 12.8837L5.56694 19.3169C5.32286 19.561 4.92714 19.561 4.68306 19.3169C4.4661 19.1 4.44199 18.7632 4.61074 18.5196L4.68306 18.4331L11.1163 12L4.68306 5.56694C4.43898 5.32286 4.43898 4.92714 4.68306 4.68306C4.90002 4.4661 5.2368 4.44199 5.48038 4.61074Z"
    fill="currentColor"
  />
</svg>
