<svg xmlns="http://www.w3.org/2000/svg" width="24" height="24" viewBox="0 0 24 24" fill="none">
  <path
    d="M9.83301 1.75C14.3043 1.75 17.9168 5.36175 17.917 9.83301C17.917 11.8138 17.1867 13.6336 16.0059 15.0518L22.1768 21.2236L22.3535 21.4004L21.4004 22.3535L21.2236 22.1768L15.0518 16.0059C13.6364 17.1863 11.8462 17.917 9.83301 17.917C5.36175 17.9168 1.75 14.3043 1.75 9.83301C1.75018 5.36186 5.36186 1.75017 9.83301 1.75ZM9.86621 3.11621C6.13872 3.11646 3.15057 6.13726 3.15039 9.83301C3.15039 13.5607 6.17038 16.5496 9.86621 16.5498H9.86914C13.5614 16.5817 16.583 13.5627 16.583 9.83301C16.5828 6.10534 13.5621 3.11621 9.86621 3.11621Z"
    fill="currentColor" stroke="currentColor" stroke-width="0.5" />
</svg>
